HIERARCHY
ROOT Hips
{
	OFFSET -3.958830 18.904000 13.208200
	CHANNELS 6 Xposition Yposition Zposition Zrotation Yrotation Xrotation 
	JOINT LHipJoint
	{
		OFFSET 0.000000 0.000000 0.000000
		CHANNELS 3 Zrotation Yrotation Xrotation
		JOINT LeftUpLeg
		{
			OFFSET 1.800000 -1.400000 0.085000
			CHANNELS 3 Zrotation Yrotation Xrotation
			JOINT LeftLeg
			{
				OFFSET 2.215000 -6.000000 0.000000
				CHANNELS 3 Zrotation Yrotation Xrotation
				JOINT LeftFoot
				{
					OFFSET 2.500000 -6.900000 0.000000
					CHANNELS 3 Zrotation Yrotation Xrotation
					JOINT LeftToeBase
					{
						OFFSET 0.200000 -0.500000 1.950000
						CHANNELS 3 Zrotation Yrotation Xrotation
						End Site
						{
							OFFSET 0.000000 0.000000 0.000000
						}
					}
				}
			}
		}
	}
	JOINT RHipJoint
	{
		OFFSET 0.000000 0.000000 0.000000
		CHANNELS 3 Zrotation Yrotation Xrotation
		JOINT RightUpLeg
		{
			OFFSET -1.800000 -1.400000 0.085000
			CHANNELS 3 Zrotation Yrotation Xrotation
			JOINT RightLeg
			{
				OFFSET -2.215000 -6.000000 0.000000
				CHANNELS 3 Zrotation Yrotation Xrotation
				JOINT RightFoot
				{
					OFFSET -2.500000 -6.900000 0.000000
					CHANNELS 3 Zrotation Yrotation Xrotation
					JOINT RightToeBase
					{
						OFFSET -0.200000 -0.500000 1.950000
						CHANNELS 3 Zrotation Yrotation Xrotation
						End Site
						{
							OFFSET 0.000000 0.000000 0.000000
						}
					}
				}
			}
		}
	}
	JOINT LowerBack
	{
		OFFSET 0.000000 0.000000 0.000000
		CHANNELS 3 Zrotation Yrotation Xrotation
		JOINT Spine
		{
			OFFSET -0.087000 1.940000 -0.288900
			CHANNELS 3 Zrotation Yrotation Xrotation
			JOINT Spine1
			{
				OFFSET 0.000000 1.950000 0.060000
				CHANNELS 3 Zrotation Yrotation Xrotation
				JOINT Neck
				{
					OFFSET 0.000000 0.000000 0.000000
					CHANNELS 3 Zrotation Yrotation Xrotation
					JOINT Neck1
					{
						OFFSET 0.000000 1.600000 0.340000
						CHANNELS 3 Zrotation Yrotation Xrotation
						JOINT Head
						{
							OFFSET 0.000000 1.667000 -0.240000
							CHANNELS 3 Zrotation Yrotation Xrotation
							End Site
							{
								OFFSET 0.000000 0.000000 0.000000
							}
						}
					}
				}
				JOINT LeftShoulder
				{
					OFFSET 0.000000 0.000000 0.000000
					CHANNELS 3 Zrotation Yrotation Xrotation
					JOINT LeftArm
					{
						OFFSET 2.700000 1.550000 -0.730000
						CHANNELS 3 Zrotation Yrotation Xrotation
						JOINT LeftForeArm
						{
							OFFSET 5.450000 0.000000 0.000000
							CHANNELS 3 Zrotation Yrotation Xrotation
							JOINT LeftHand
							{
								OFFSET 3.450000 0.000000 0.000000
								CHANNELS 3 Zrotation Yrotation Xrotation
								JOINT LeftHandIndex1
								{
									OFFSET 0.750000 0.000000 0.000000
									CHANNELS 3 Zrotation Yrotation Xrotation
									End Site
									{
										OFFSET 0.000000 0.000000 0.000000
									}
								}
							}
						}
					}
				}
				JOINT RightShoulder
				{
					OFFSET 0.000000 0.000000 0.000000
					CHANNELS 3 Zrotation Yrotation Xrotation
					JOINT RightArm
					{
						OFFSET -2.700000 1.550000 -0.730000
						CHANNELS 3 Zrotation Yrotation Xrotation
						JOINT RightForeArm
						{
							OFFSET -5.450000 0.000000 0.000000
							CHANNELS 3 Zrotation Yrotation Xrotation
							JOINT RightHand
							{
								OFFSET -3.450000 0.000000 0.000000
								CHANNELS 3 Zrotation Yrotation Xrotation
								JOINT RightHandIndex1
								{
									OFFSET -0.750000 0.000000 0.000000
									CHANNELS 3 Zrotation Yrotation Xrotation
									End Site
									{
										OFFSET 0.000000 0.000000 0.000000
									}
								}
							}
						}
					}
				}
			}
		}
	}
}
MOTION
Frames: 8
Frame Time: 0.016667
-0.321070 16.915470 -1.128400 -2.895737 -16.002382 5.982237 -15.352137 15.385404 3.086788 9.680918 -2.562188 -16.820769 3.734707 3.246764 13.437466 0.005421 3.341704 3.659123 -0.390530 -0.481060 -0.811850 17.574416 -10.354768 3.248460 -11.444410 0.887425 -9.658245 1.229392 -2.116079 -2.442232 0.284913 -3.265402 3.736761 -0.266940 0.903220 -0.037540 -1.983979 -5.378878 -7.883151 8.834083 2.170332 25.537426 0.949873 1.420108 -26.655611 5.829240 -7.613585 -18.515850 -19.829904 9.996802 32.436822 6.857850 -0.613700 17.182390 28.365197 9.593142 0.061367 13.272505 -22.864118 3.476834 16.780093 11.192866 -0.120687 -3.833717 3.303729 -0.276470 0.495010 -0.717800 0.267790 -32.551567 -5.740967 -0.138484 -41.288734 -25.240464 10.530941 -4.668886 6.234228 -0.376828 2.157788 -2.046275 -0.201040 0.164360 0.374700 0.216350 
-0.349690 16.929030 -1.111090 -3.189958 -13.678618 8.353633 -15.405209 15.316776 3.239979 10.162591 -2.922194 -19.444202 3.697033 3.120010 12.816326 -0.037979 3.306974 3.695249 -0.491060 -0.614940 -0.946760 17.537530 -10.265320 3.228622 -10.064071 1.340744 -11.118075 0.654843 -1.888884 -2.189170 0.411040 -3.121785 3.827451 -0.309130 1.044030 -0.030320 -1.966992 -5.452032 -7.932012 11.495957 2.437633 23.832279 0.234553 1.437831 -29.084033 5.583397 -8.984243 -17.425463 -21.743408 10.076005 30.094347 7.018420 -1.546780 18.946860 27.121192 10.941423 -1.290226 9.387267 -23.526163 4.559668 18.003661 12.292517 0.138155 -4.028351 3.300405 -0.324890 0.573230 -0.832460 0.277800 -31.387907 -5.895802 -0.518534 -49.861326 -26.082506 14.566829 -4.353157 5.966000 -0.239875 1.894622 -2.218639 -0.251860 0.190640 0.464770 0.245950 
-0.381970 16.943990 -1.094870 -3.403256 -12.549780 10.115046 -15.428987 15.291803 3.378280 10.724365 -3.084312 -21.313608 3.454468 3.123491 12.264896 -0.053060 3.295725 3.727820 -0.592060 -0.717670 -1.056290 17.521095 -10.123208 3.265820 -9.240006 1.716250 -12.152610 0.641013 -1.708738 -2.518234 0.493062 -3.010390 3.904428 -0.344590 1.147690 -0.068630 -1.987032 -5.668059 -7.977884 14.111736 1.960095 22.760703 -1.486965 1.611267 -31.227937 5.273853 -9.834252 -16.803745 -23.340226 10.662887 28.930770 7.380550 -1.748420 20.414120 25.171201 12.936815 -1.906197 7.827908 -22.803823 4.623026 19.035255 10.587795 0.339349 -4.197704 3.259022 -0.354010 0.617740 -0.910750 0.278460 -29.182939 -7.093172 0.427002 -55.240041 -26.597036 17.435331 -5.282524 3.633446 -0.245095 1.767590 -2.066425 -0.311030 0.247240 0.530760 0.268590 
-0.416950 16.948430 -1.081230 -3.399724 -12.808971 11.397792 -15.419702 15.232016 3.470775 11.204810 -3.116343 -22.204921 2.893417 3.205396 11.578608 -0.051445 3.288981 3.736252 -0.591370 -0.739040 -1.047490 17.536751 -10.001080 3.323830 -9.124396 1.981282 -12.965375 0.841414 -1.586650 -3.153288 0.492321 -2.940717 3.920628 -0.358570 1.154940 -0.064840 -2.046474 -5.816802 -8.030322 15.709370 1.173958 21.252578 -2.693952 2.009747 -31.988436 5.070066 -10.352732 -16.236840 -24.828470 11.560000 28.460996 7.770800 -1.285900 21.210270 22.963958 14.584978 -1.668286 7.481080 -21.489033 4.175549 19.931359 10.217560 0.565510 -4.309793 3.220494 -0.332590 0.608670 -0.906500 0.286740 -26.493603 -8.180874 1.932737 -58.467995 -29.165959 20.528850 -7.284207 2.677521 0.050918 1.843403 -1.986974 -0.320220 0.246790 0.527260 0.263910 
-0.460050 16.938620 -1.075220 -2.666502 -13.634446 11.906178 -15.353394 15.091650 3.499453 11.055192 -3.132721 -22.220377 2.167896 3.296991 11.079675 -0.149544 3.272045 3.710626 -0.580410 -0.720990 -1.023190 17.588725 -10.025112 3.408226 -10.185448 2.025376 -13.491811 1.370248 -1.601696 -3.828301 0.459977 -2.943250 3.891290 -0.324820 1.122050 -0.104550 -2.199163 -5.530118 -8.041896 16.322694 0.636896 20.016626 -3.639306 1.106134 -31.916224 4.705126 -10.608436 -16.018495 -25.959006 13.295085 28.632252 8.953430 -0.343540 19.883600 21.413997 16.572543 -1.384766 6.913535 -18.590685 3.810185 21.199797 7.121266 0.626812 -4.392537 3.156868 -0.246980 0.567230 -0.876160 0.252350 -24.614155 -9.938354 2.219049 -57.680855 -30.488028 21.791082 -9.884928 0.972658 0.422351 2.002008 -1.681028 -0.369410 0.302570 0.558040 0.220860 
-0.472590 16.929940 -1.083060 -2.862669 -12.633281 12.775599 -15.364429 15.077642 3.593404 11.335471 -3.225682 -23.260563 2.193436 3.244132 10.499692 -0.159023 3.274019 3.745652 -0.619640 -0.777530 -1.060790 17.591776 -9.954123 3.365232 -9.762740 2.245738 -14.398088 1.198471 -1.536556 -3.177685 0.513041 -2.837878 3.946158 -0.342400 1.186220 -0.112170 -2.225479 -5.740417 -8.033480 17.592193 -0.555695 19.496382 -4.252743 1.442151 -32.375458 4.856206 -10.882561 -15.433154 -25.973709 13.179755 27.375014 8.902680 -0.292930 20.783930 19.957062 17.559598 -1.380318 6.238058 -17.815835 3.569508 21.895939 9.543430 0.995053 -4.553483 3.056442 -0.262370 0.600870 -0.920860 0.268630 -23.263471 -10.155515 3.349007 -59.149155 -32.706393 22.888841 -10.283695 -1.227610 0.237378 1.951374 -1.573565 -0.404210 0.327320 0.574980 0.228580 
-0.496270 16.912170 -1.092010 -2.952633 -12.974071 13.431758 -15.367859 15.081209 3.651439 11.495610 -3.295379 -23.781336 2.343091 3.188025 10.075889 -0.148524 3.247502 3.754514 -0.647250 -0.803630 -1.076120 17.597648 -9.920604 3.312980 -9.536346 2.423169 -15.512238 1.097702 -1.517703 -2.211306 0.559672 -2.703708 3.991698 -0.360600 1.198580 -0.112090 -2.224282 -5.882744 -8.026168 17.831855 -1.258232 19.186253 -4.084552 1.819602 -32.632517 5.021128 -10.941166 -15.134154 -25.870613 13.309653 26.612421 8.877370 0.229840 21.341690 18.843072 18.072498 -1.322193 5.924679 -16.964426 3.301558 22.045088 12.074002 1.377444 -4.652561 2.976974 -0.278690 0.613110 -0.932310 0.258920 -22.099790 -10.369154 4.496864 -58.458098 -35.563289 23.828093 -11.997424 -3.574714 0.406176 2.123177 -1.393241 -0.404850 0.318340 0.585560 0.232290 
-0.526900 16.896250 -1.113290 -2.256291 -14.047314 13.215255 -15.333285 15.061857 3.658368 11.099786 -3.376717 -23.466249 2.404084 3.105678 9.751174 -0.178485 3.195100 3.750031 -0.636090 -0.789990 -1.060550 17.619328 -10.009685 3.258191 -10.380098 2.339448 -16.393124 1.097018 -1.634463 -1.048680 0.557423 -2.623866 3.992270 -0.356020 1.164490 -0.109980 -2.273690 -5.760476 -7.972019 17.081078 -1.774111 19.465194 -4.352825 1.228496 -32.863537 5.286054 -10.959248 -14.950212 -25.964193 14.222721 26.523334 9.530740 0.946350 20.650300 17.829845 17.854101 -0.699552 6.346670 -14.575816 2.996997 23.207107 12.168975 1.699950 -4.684874 2.937701 -0.235860 0.584480 -0.899020 0.242790 -21.408175 -10.038818 4.975385 -57.462142 -37.263285 22.961644 -10.219264 -5.067807 -0.115433 1.993340 -1.287407 -0.405100 0.314720 0.592900 0.216300 
